# xmcd CD database file
#
# Track frame offsets:
#	150
#	17660
#	35662
#	53172
#
# Disc length: 946 seconds
#
# Revision: 0
# Processed by: cddbd v1.5PL3 Copyright (c) Steve Scherf et al.
# Submitted via: CDex 1.51
#
DISCID=2b03b004
DTITLE=Honey Bee - LA♪LA♪BYE
DYEAR=2004
DGENRE=Anime
TTITLE0=LA♪LA♪BYE
TTITLE1=soul★mate
TTITLE2=LA♪LA♪BYE (off vocal)
TTITLE3=soul★mate (off vocal)
EXTD=YEAR: 2004
EXTT0=
EXTT1=
EXTT2=
EXTT3=
PLAYORDER=
